<svg xmlns="http://www.w3.org/2000/svg" viewBox="0 0 128 128"><path fill="#f5c518" d="M34 20c-4 0-7.3 1.3-9.8 3.8S20 29.7 20 34v16c0 4-1.2 7-3.5 9S12 62.5 8 63v2c4 .5 7.2 1.7 9.5 3.7S20 74 20 78v16c0 4.3 1.7 7.8 4.2 10.2S29.7 108 34 108h4v-8h-2c-3 0-5.2-.8-6.5-2.3S28 94.3 28 92V76c0-4-.8-7-2.5-9.2S21.2 63.5 18 63c3.2-.5 5.8-1.8 7.5-4S28 54 28 50V36c0-2.3.5-5 1.5-6.7S32 27 34 27h2v-7h-2zm60 0c4 0 7.3 1.3 9.8 3.8S108 29.7 108 34v16c0 4 1.2 7 3.5 9s4.5 3.5 8.5 4v2c-4 .5-7.2 1.7-9.5 3.7S108 74 108 78v16c0 4.3-1.7 7.8-4.2 10.2S98.3 108 94 108h-4v-8h2c3 0 5.2-.8 6.5-2.3S100 94.3 100 92V76c0-4 .8-7 2.5-9.2s4.3-3.3 7.5-3.8c-3.2-.5-5.8-1.8-7.5-4S100 54 100 50V36c0-2.3-.5-5-1.5-6.7S96 27 94 27h-2v-7h2z"/></svg>
