<svg xmlns="http://www.w3.org/2000/svg" viewBox="0 0 1024 1024" width="1024" height="1024">
  <!-- macOS rounded-rect background -->
  <rect width="1024" height="1024" rx="192" ry="192" fill="#0A0A0A"/>

  <defs>
    <mask id="ghost-cutouts">
      <!-- White = visible, black = cut out -->
      <rect width="1024" height="1024" fill="white"/>
      <!-- Left eye -->
      <circle cx="410" cy="440" r="52" fill="black"/>
      <!-- Right eye -->
      <circle cx="614" cy="440" r="52" fill="black"/>
      <!-- Mouth (curved smile) -->
      <path d="M 430 540 Q 512 610 594 540 Q 570 580 512 590 Q 454 580 430 540 Z" fill="black"/>
    </mask>
  </defs>

  <!-- Ghost body with cutouts -->
  <path mask="url(#ghost-cutouts)" fill="#CCFF00" d="
    M 512 180
    C 340 180 260 310 260 440
    L 260 700
    Q 260 740 290 740
    Q 320 710 350 740
    Q 380 770 410 740
    Q 440 710 470 740
    Q 500 770 530 740
    Q 560 710 590 740
    Q 620 770 650 740
    Q 680 710 710 740
    Q 740 770 764 740
    L 764 440
    C 764 310 684 180 512 180
    Z
  "/>
</svg>
